Thanks to BigPerm for this Release

Bronson 2008 DVDRip Xvid BigPerm LKRG

A young man who was sentenced to 7 years on prison for robbing a post office ends up spending 30 years in solitary confinement. During this time, his own personality is supplanted by his alter ego, Charles Bronson.

Tom Hardy ... Charles Bronson / Michael Peterson

Kelly Adams ... Irene
Luing Andrews ... Hysterical Screw
Katy Barker ... Julie
Gordon Brown ... Screw
Amanda Burton ... Charlie's Mum
Mark Devenport ... Nurse 1
Paul Donnelly ... Screw
Andrew Forbes ... Charlie's Dad
Jon House ... Webber
Matt King ... Paul Daniels
James Lance ... Phil
Holly Lucas ... Young Man
Juliet Oldfield ... Alison
Jonathan Phillips ... Prison Governor
  http://www.imdb.com/title/tt1172570/


General

Complete name : Bronson 2008 DVDRip Xvid BigPerm LKRG\B_LKRG.avi
Format : AVI
Format/Info : Audio Video Interleave
File size : 959 MiB
Duration : 1h 32mn
Overall bit rate : 1 450 Kbps

Video
ID : 0
Format : MPEG-4 Visual
Format profile : Advanced Simple@L5
Format settings, BVOP : Yes
Format settings, QPel : No
Format settings, GMC : No warppoints
Format settings, Matrix : Default (H.263)
Codec ID : XVID
Codec ID/Hint : XviD
Duration : 1h 32mn
Bit rate : 996 Kbps
Width : 700 pixels
Height : 392 pixels
Display aspect ratio : 16:9
Frame rate : 29.970 fps
Resolution : 8 bits
Colorimetry : 4:2:0
Scan type : Progressive
Bits/(Pixel*Frame) : 0.121
Stream size : 659 MiB (69%)
Writing library : XviD 1.2.1 (UTC 2008-12-04)

Audio
ID : 1
Format : AC-3
Format/Info : Audio Coding 3
Codec ID : 2000
Duration : 1h 32mn
Bit rate mode : Constant
Bit rate : 448 Kbps
Channel(s) : 6 channels
Channel positions : Front: L C R, Side: L R, LFE
Sampling rate : 48.0 KHz
Resolution : 16 bits
Video delay : 33ms
Stream size : 296 MiB (31%)
Alignment : Split accross interleaves
Interleave, duration : 500 ms (14.98 video frames)
Interleave, preload duration : 500 ms
Language : English